<?xml version="1.0" encoding="UTF-8" standalone="no"?>
<svg width="91px" height="82px" viewBox="0 0 91 82" version="1.1" xmlns="http://www.w3.org/2000/svg" xmlns:xlink="http://www.w3.org/1999/xlink">
    <!-- Generator: Sketch 39.1 (31720) - http://www.bohemiancoding.com/sketch -->
    <title>Group 7</title>
    <desc>Created with Sketch.</desc>
    <defs></defs>
    <g id="Page-1" stroke="none" stroke-width="1" fill="none" fill-rule="evenodd">
        <g id="Group-7">
            <g id="Group-3" fill="#FFFFFF">
                <path d="M33.8986229,14 L33.8886108,14 L33.8886108,19 L33.8886108,37.635332 L18.0311692,27.0637042 L25.1475671,22.1369672 L25.1475671,10.053494 L25.1105328,10 L20.9995718,12.8460499 L7.9995718,21.8460499 L3.88861084,24.6920998 L3.90323189,24.7132191 L0,27.3786011 L5.7933664,30.9236733 L9.04886231,33.0940039 L33.0488623,49.0940039 L37.190605,51.8551657 L43.8786174,57 L43.8543195,49 L43.8886108,49 L43.8886108,44 L43.8886108,19 L43.8886108,14.0616626 L43.9053419,14.0618619 L43.8886108,14.0517139 L43.8886108,14 L43.8033497,14 L33.9110979,8 L33.8886108,13.942551 L33.8991889,13.942677 L33.8986229,14 Z M43.8719194,10.9610539 L33.8886108,4.97971314 L43.8804859,0 L43.8719194,10.9610539 Z" id="Combined-Shape-Copy-4"></path>
                <path d="M46,14.4876239 L46,19 L46,44 L46,49 L46.0242979,49 L46,57 L53.4840305,51.2428192 L56.7072534,49.0940039 L80.7072534,33.0940039 L84.122019,30.8174935 L84.1582031,30.8828735 L90.0787964,27.2599487 L85.3048706,24 L85.2850719,24.0178721 L82.1479953,21.8460499 L69.1479953,12.8460499 L65.0370343,10 L65,10.053494 L65,22.1369672 L71.9243652,26.9307585 L56,37.547002 L56,19 L56,15.0346522 L56.0078632,15.034658 L56,14.2383651 L56,14 L55.9976462,14 L55.9970812,13.9427851 L56.0167311,13.942551 L55.994244,8 L55.9647477,8.01789056 L55.96182,4.99772012 L55.991875,4.97971314 L55.961788,4.96471849 L55.9617533,4.9289057 L54.9928589,4.45840204 L54.9231831,4.44710249 L46,0 L46.0023449,3.00038028 L46,3 L46,7.97620686 L46,14.4876239 Z" id="Combined-Shape-Copy-5"></path>
            </g>
            <path d="M15.328,66.84 C15.6720017,66.84 15.9839986,66.8879995 16.264,66.984 C16.5440014,67.0800005 16.783999,67.2179991 16.984,67.398 C17.184001,67.5780009 17.3379995,67.7959987 17.446,68.052 C17.5540005,68.3080013 17.608,68.5919984 17.608,68.904 L17.608,78.936 C17.608,79.5760032 17.406002,80.0799982 17.002,80.448 C16.597998,80.8160018 16.0320036,81 15.304,81 L13.24,81 C13.1599996,81 13.1000002,80.9760002 13.06,80.928 C13.0199998,80.8799998 13,80.8200004 13,80.748 L13,67.092 C13,67.0199996 13.0199998,66.9600002 13.06,66.912 C13.1000002,66.8639998 13.1599996,66.84 13.24,66.84 L15.328,66.84 Z M15.304,79.656 C15.5440012,79.656 15.7199994,79.5880007 15.832,79.452 C15.9440006,79.3159993 16,79.144001 16,78.936 L16,68.904 C16,68.695999 15.9460005,68.5240007 15.838,68.388 C15.7299995,68.2519993 15.5520012,68.184 15.304,68.184 L14.608,68.184 L14.608,79.656 L15.304,79.656 Z M27.052,66.84 C27.1240004,66.84 27.1839998,66.8599998 27.232,66.9 C27.2800002,66.9400002 27.304,66.9999996 27.304,67.08 L27.304,67.488 C27.304,67.696001 27.2480006,67.8639994 27.136,67.992 C27.0239994,68.1200006 26.8760009,68.184 26.692,68.184 L25.216,68.184 L25.216,73.332 L26.812,73.332 C26.8840004,73.332 26.9439998,73.3519998 26.992,73.392 C27.0400002,73.4320002 27.064,73.4919996 27.064,73.572 L27.064,73.98 C27.064,74.188001 27.0080006,74.3559994 26.896,74.484 C26.7839994,74.6120006 26.6360009,74.676 26.452,74.676 L25.216,74.676 L25.216,79.656 L26.692,79.656 C26.8760009,79.656 27.0239994,79.7199994 27.136,79.848 C27.2480006,79.9760006 27.304,80.143999 27.304,80.352 L27.304,80.76 C27.304,80.8400004 27.2800002,80.8999998 27.232,80.94 C27.1839998,80.9800002 27.1240004,81 27.052,81 L23.848,81 C23.7679996,81 23.7080002,80.9760002 23.668,80.928 C23.6279998,80.8799998 23.608,80.8200004 23.608,80.748 L23.608,67.092 C23.608,67.0199996 23.6279998,66.9600002 23.668,66.912 C23.7080002,66.8639998 23.7679996,66.84 23.848,66.84 L27.052,66.84 Z M36.664,71.796 C36.4319988,71.796 36.2580006,71.7300007 36.142,71.598 C36.0259994,71.4659993 35.968,71.296001 35.968,71.088 L35.968,68.712 C35.968,68.4959989 35.9100006,68.3220007 35.794,68.19 C35.6779994,68.0579993 35.5040012,67.992 35.272,67.992 C35.0319988,67.992 34.8560006,68.0579993 34.744,68.19 C34.6319994,68.3220007 34.576,68.4959989 34.576,68.712 C34.576,69.3600032 34.6179996,69.9199976 34.702,70.392 C34.7860004,70.8640024 34.8999993,71.2799982 35.044,71.64 C35.1880007,72.0000018 35.3499991,72.3239986 35.53,72.612 C35.7100009,72.9000014 35.8919991,73.1879986 36.076,73.476 C36.2600009,73.7640014 36.4419991,74.0699984 36.622,74.394 C36.8020009,74.7180016 36.9639993,75.0979978 37.108,75.534 C37.2520007,75.9700022 37.3659996,76.4779971 37.45,77.058 C37.5340004,77.6380029 37.576,78.327996 37.576,79.128 C37.576,79.4480016 37.5220005,79.7339987 37.414,79.986 C37.3059995,80.2380013 37.150001,80.4539991 36.946,80.634 C36.741999,80.8140009 36.4980014,80.9519995 36.214,81.048 C35.9299986,81.1440005 35.6160017,81.192 35.272,81.192 C34.5439964,81.192 33.978002,81.0080018 33.574,80.64 C33.169998,80.2719982 32.968,79.7680032 32.968,79.128 L32.968,76.176 C32.968,76.1039996 32.9879998,76.0440002 33.028,75.996 C33.0680002,75.9479998 33.1279996,75.924 33.208,75.924 L33.88,75.924 C34.1120012,75.924 34.2859994,75.9899993 34.402,76.122 C34.5180006,76.2540007 34.576,76.423999 34.576,76.632 L34.576,79.128 C34.576,79.3440011 34.6339994,79.5179993 34.75,79.65 C34.8660006,79.7820007 35.0399988,79.848 35.272,79.848 C35.5120012,79.848 35.6879994,79.7820007 35.8,79.65 C35.9120006,79.5179993 35.968,79.3440011 35.968,79.128 C35.968,78.3599962 35.9260004,77.7040027 35.842,77.16 C35.7579996,76.6159973 35.6440007,76.146002 35.5,75.75 C35.3559993,75.353998 35.1940009,75.0100015 35.014,74.718 C34.8339991,74.4259985 34.6520009,74.1460013 34.468,73.878 C34.2839991,73.6099987 34.1020009,73.3320014 33.922,73.044 C33.7419991,72.7559986 33.5800007,72.416002 33.436,72.024 C33.2919993,71.631998 33.1780004,71.1720026 33.094,70.644 C33.0099996,70.1159974 32.968,69.4720038 32.968,68.712 C32.968,68.3919984 33.0219995,68.1060013 33.13,67.854 C33.2380005,67.6019987 33.393999,67.3860009 33.598,67.206 C33.802001,67.0259991 34.0439986,66.8880005 34.324,66.792 C34.6040014,66.6959995 34.9199982,66.648 35.272,66.648 C36.0000036,66.648 36.565998,66.8319982 36.97,67.2 C37.374002,67.5680018 37.576,68.0719968 37.576,68.712 L37.576,71.544 C37.576,71.6160004 37.5560002,71.6759998 37.516,71.724 C37.4759998,71.7720002 37.4160004,71.796 37.336,71.796 L36.664,71.796 Z M43.576,67.452 C43.576,67.2679991 43.6399994,67.1200006 43.768,67.008 C43.8960006,66.8959994 44.063999,66.84 44.272,66.84 L44.944,66.84 C45.0240004,66.84 45.0839998,66.8639998 45.124,66.912 C45.1640002,66.9600002 45.184,67.0199996 45.184,67.092 L45.184,80.568 C45.184,80.6880006 45.1420004,80.7899996 45.058,80.874 C44.9739996,80.9580004 44.8720006,81 44.752,81 L44.008,81 C43.8879994,81 43.7860004,80.9580004 43.702,80.874 C43.6179996,80.7899996 43.576,80.6880006 43.576,80.568 L43.576,67.452 Z M55.552,74.484 C55.6320004,74.484 55.6919998,74.5079998 55.732,74.556 C55.7720002,74.6040002 55.792,74.6639996 55.792,74.736 L55.792,79.128 C55.792,79.7680032 55.590002,80.2719982 55.186,80.64 C54.781998,81.0080018 54.2160036,81.192 53.488,81.192 C53.1359982,81.192 52.8200014,81.1440005 52.54,81.048 C52.2599986,80.9519995 52.018001,80.8140009 51.814,80.634 C51.609999,80.4539991 51.4540005,80.2380013 51.346,79.986 C51.2379995,79.7339987 51.184,79.4480016 51.184,79.128 L51.184,68.712 C51.184,68.0719968 51.385998,67.5680018 51.79,67.2 C52.194002,66.8319982 52.7599964,66.648 53.488,66.648 C53.8320017,66.648 54.1459986,66.6959995 54.43,66.792 C54.7140014,66.8880005 54.957999,67.0259991 55.162,67.206 C55.366001,67.3860009 55.5219995,67.6019987 55.63,67.854 C55.7380005,68.1060013 55.792,68.3919984 55.792,68.712 L55.792,73.26 C55.792,73.3320004 55.7720002,73.3919998 55.732,73.44 C55.6919998,73.4880002 55.6320004,73.512 55.552,73.512 L54.88,73.512 C54.6479988,73.512 54.4740006,73.4460007 54.358,73.314 C54.2419994,73.1819993 54.184,73.012001 54.184,72.804 L54.184,68.712 C54.184,68.4959989 54.1280006,68.3220007 54.016,68.19 C53.9039994,68.0579993 53.7280012,67.992 53.488,67.992 C53.2559988,67.992 53.0820006,68.0579993 52.966,68.19 C52.8499994,68.3220007 52.792,68.4959989 52.792,68.712 L52.792,79.128 C52.792,79.3440011 52.8479994,79.5179993 52.96,79.65 C53.0720006,79.7820007 53.2479988,79.848 53.488,79.848 C53.7200012,79.848 53.8939994,79.7820007 54.01,79.65 C54.1260006,79.5179993 54.184,79.3440011 54.184,79.128 L54.184,75.828 C53.7039976,75.828 53.464,75.5960023 53.464,75.132 L53.464,74.724 C53.464,74.6439996 53.4879998,74.5840002 53.536,74.544 C53.5840002,74.5039998 53.6439996,74.484 53.716,74.484 L55.552,74.484 Z M66.16,66.84 C66.2400004,66.84 66.2999998,66.8639998 66.34,66.912 C66.3800002,66.9600002 66.4,67.0199996 66.4,67.092 L66.4,80.748 C66.4,80.8200004 66.3800002,80.8799998 66.34,80.928 C66.2999998,80.9760002 66.2400004,81 66.16,81 L65.488,81 C65.279999,81 65.1200006,80.9500005 65.008,80.85 C64.8959994,80.7499995 64.8280001,80.6160008 64.804,80.448 C64.804,80.3519995 64.7740003,80.1600014 64.714,79.872 C64.6539997,79.5839986 64.5780005,79.238002 64.486,78.834 C64.3939995,78.429998 64.2920006,77.9860024 64.18,77.502 C64.0679994,77.0179976 63.9560006,76.5240025 63.844,76.02 C63.7319994,75.5159975 63.6260005,75.0200024 63.526,74.532 C63.4259995,74.0439976 63.3440003,73.600002 63.28,73.2 L63.4,80.292 C63.408,80.500001 63.3520006,80.6699993 63.232,80.802 C63.1119994,80.9340007 62.9360012,81 62.704,81 L62.032,81 C61.9519996,81 61.8920002,80.9760002 61.852,80.928 C61.8119998,80.8799998 61.792,80.8200004 61.792,80.748 L61.792,67.092 C61.792,67.0199996 61.8119998,66.9600002 61.852,66.912 C61.8920002,66.8639998 61.9519996,66.84 62.032,66.84 L62.704,66.84 C62.904001,66.84 63.0659994,66.8939995 63.19,67.002 C63.3140006,67.1100005 63.3839999,67.2519991 63.4,67.428 C63.4160001,67.5560006 63.4519997,67.7859983 63.508,68.118 C63.5640003,68.4500017 63.6359996,68.8399978 63.724,69.288 C63.8120004,69.7360022 63.9079995,70.2239974 64.012,70.752 C64.1160005,71.2800026 64.2219995,71.8059974 64.33,72.33 C64.4380005,72.8540026 64.5419995,73.3519976 64.642,73.824 C64.7420005,74.2960024 64.8319996,74.7039983 64.912,75.048 L64.792,67.452 C64.792,67.2679991 64.8559994,67.1200006 64.984,67.008 C65.1120006,66.8959994 65.279999,66.84 65.488,66.84 L66.16,66.84 Z M76.096,71.796 C75.8639988,71.796 75.6900006,71.7300007 75.574,71.598 C75.4579994,71.4659993 75.4,71.296001 75.4,71.088 L75.4,68.712 C75.4,68.4959989 75.3420006,68.3220007 75.226,68.19 C75.1099994,68.0579993 74.9360012,67.992 74.704,67.992 C74.4639988,67.992 74.2880006,68.0579993 74.176,68.19 C74.0639994,68.3220007 74.008,68.4959989 74.008,68.712 C74.008,69.3600032 74.0499996,69.9199976 74.134,70.392 C74.2180004,70.8640024 74.3319993,71.2799982 74.476,71.64 C74.6200007,72.0000018 74.7819991,72.3239986 74.962,72.612 C75.1420009,72.9000014 75.3239991,73.1879986 75.508,73.476 C75.6920009,73.7640014 75.8739991,74.0699984 76.054,74.394 C76.2340009,74.7180016 76.3959993,75.0979978 76.54,75.534 C76.6840007,75.9700022 76.7979996,76.4779971 76.882,77.058 C76.9660004,77.6380029 77.008,78.327996 77.008,79.128 C77.008,79.4480016 76.9540005,79.7339987 76.846,79.986 C76.7379995,80.2380013 76.582001,80.4539991 76.378,80.634 C76.173999,80.8140009 75.9300014,80.9519995 75.646,81.048 C75.3619986,81.1440005 75.0480017,81.192 74.704,81.192 C73.9759964,81.192 73.410002,81.0080018 73.006,80.64 C72.601998,80.2719982 72.4,79.7680032 72.4,79.128 L72.4,76.176 C72.4,76.1039996 72.4199998,76.0440002 72.46,75.996 C72.5000002,75.9479998 72.5599996,75.924 72.64,75.924 L73.312,75.924 C73.5440012,75.924 73.7179994,75.9899993 73.834,76.122 C73.9500006,76.2540007 74.008,76.423999 74.008,76.632 L74.008,79.128 C74.008,79.3440011 74.0659994,79.5179993 74.182,79.65 C74.2980006,79.7820007 74.4719988,79.848 74.704,79.848 C74.9440012,79.848 75.1199994,79.7820007 75.232,79.65 C75.3440006,79.5179993 75.4,79.3440011 75.4,79.128 C75.4,78.3599962 75.3580004,77.7040027 75.274,77.16 C75.1899996,76.6159973 75.0760007,76.146002 74.932,75.75 C74.7879993,75.353998 74.6260009,75.0100015 74.446,74.718 C74.2659991,74.4259985 74.0840009,74.1460013 73.9,73.878 C73.7159991,73.6099987 73.5340009,73.3320014 73.354,73.044 C73.1739991,72.7559986 73.0120007,72.416002 72.868,72.024 C72.7239993,71.631998 72.6100004,71.1720026 72.526,70.644 C72.4419996,70.1159974 72.4,69.4720038 72.4,68.712 C72.4,68.3919984 72.4539995,68.1060013 72.562,67.854 C72.6700005,67.6019987 72.825999,67.3860009 73.03,67.206 C73.234001,67.0259991 73.4759986,66.8880005 73.756,66.792 C74.0360014,66.6959995 74.3519982,66.648 74.704,66.648 C75.4320036,66.648 75.997998,66.8319982 76.402,67.2 C76.806002,67.5680018 77.008,68.0719968 77.008,68.712 L77.008,71.544 C77.008,71.6160004 76.9880002,71.6759998 76.948,71.724 C76.9079998,71.7720002 76.8480004,71.796 76.768,71.796 L76.096,71.796 Z" id="designs" fill="#00DED4"></path>
        </g>
    </g>
</svg>