<?xml version="1.0" encoding="UTF-8" standalone="no"?>
<svg width="90px" height="84px" viewBox="0 0 90 84" version="1.1" xmlns="http://www.w3.org/2000/svg" xmlns:xlink="http://www.w3.org/1999/xlink">
    <!-- Generator: Sketch 48 (47235) - http://www.bohemiancoding.com/sketch -->
    <title>Logo for site</title>
    <desc>Created with Sketch.</desc>
    <defs></defs>
    <g id="Page-1" stroke="none" stroke-width="1" fill="none" fill-rule="evenodd">
        <g id="Logo-for-site">
            <text id="dezigns" font-family="aliensandcows, aliens and cows" font-size="24" font-weight="normal" fill="#00DED4">
                <tspan x="10" y="83">dezigns</tspan>
            </text>
            <path d="M33.8991889,15.942677 L33.8886108,15.942551 L33.9110979,10 L43.8033497,16 L43.8886108,16 L43.8886108,16.0517139 L43.9053419,16.0618619 L43.8886108,16.0616626 L43.8886108,21 L43.8886108,46 L43.8886108,51 L43.8543195,51 L43.8786174,59 L37.190605,53.8551657 L33.0488623,51.0940039 L9.04886231,35.0940039 L5.7933664,32.9236733 L0,29.3786011 L3.90323189,26.7132191 L3.88861084,26.6920998 L7.9995718,23.8460499 L20.9995718,14.8460499 L25.1105328,12 L25.1475671,12.053494 L25.1475671,24.1369672 L18.0311692,29.0637042 L33.8886108,39.635332 L33.8886108,21 L33.8886108,16 L33.8986229,16 L33.8991889,15.942677 Z M43.8719194,12.9610539 L34,6.48052696 L43.9053419,0 L43.8719194,12.9610539 Z" id="Combined-Shape-Copy-4" fill="#FFFFFF" fill-rule="nonzero"></path>
            <path d="M38.5833333,49.7916667 L34,42 L34,10 L44,16 C44,16 44,30.3333333 44,59 L38.5833333,49.7916667 L44,55 L44,59 L1,30 L1.46666667,30 L0,29 L1.46666667,30 Z M46,51 L46,46 L46,21 L46,16 L46,9.97620686 L46,5 L46.0085665,5.00138925 L46.0085665,0 L55.8224367,6.86125235 L55.9617533,6.9289057 L55.9617822,6.95867407 L55.991875,6.97971314 L55.96182,6.99772012 L55.9647477,10.0178906 L55.994244,10 L56.0167311,15.942551 L55.9970812,15.9427851 L55.9976462,16 L56,16 L56,16.2383651 L56.0078632,17.034658 L56,17.0346522 L56,21 L56,39.547002 L71.9243652,28.9307585 L65,24.1369672 L65,12.053494 L65.0370343,12 L69.1479953,14.8460499 L82.1479953,23.8460499 L85.2850719,26.0178721 L85.3048706,26 L90,29 L46,59 L46,57 L46,51 Z" id="Combined-Shape-Copy-5" fill="#FFFFFF" fill-rule="nonzero"></path>
        </g>
    </g>
</svg>